<?xml version="1.0" encoding="UTF-8"?>
<svg xmlns="http://www.w3.org/2000/svg" width="636" height="636" viewBox="0 0 636 636">
  
  <g fill="black">
    <rect x="72" y="72" width="12" height="12"/><rect x="84" y="72" width="12" height="12"/><rect x="96" y="72" width="12" height="12"/><rect x="108" y="72" width="12" height="12"/><rect x="120" y="72" width="12" height="12"/><rect x="132" y="72" width="12" height="12"/><rect x="144" y="72" width="12" height="12"/><rect x="168" y="72" width="12" height="12"/><rect x="180" y="72" width="12" height="12"/><rect x="192" y="72" width="12" height="12"/><rect x="240" y="72" width="12" height="12"/><rect x="312" y="72" width="12" height="12"/><rect x="324" y="72" width="12" height="12"/><rect x="348" y="72" width="12" height="12"/><rect x="372" y="72" width="12" height="12"/><rect x="384" y="72" width="12" height="12"/><rect x="408" y="72" width="12" height="12"/><rect x="432" y="72" width="12" height="12"/><rect x="444" y="72" width="12" height="12"/><rect x="456" y="72" width="12" height="12"/><rect x="480" y="72" width="12" height="12"/><rect x="492" y="72" width="12" height="12"/><rect x="504" y="72" width="12" height="12"/><rect x="516" y="72" width="12" height="12"/><rect x="528" y="72" width="12" height="12"/><rect x="540" y="72" width="12" height="12"/><rect x="552" y="72" width="12" height="12"/><rect x="72" y="84" width="12" height="12"/><rect x="144" y="84" width="12" height="12"/><rect x="168" y="84" width="12" height="12"/><rect x="228" y="84" width="12" height="12"/><rect x="240" y="84" width="12" height="12"/><rect x="300" y="84" width="12" height="12"/><rect x="360" y="84" width="12" height="12"/><rect x="372" y="84" width="12" height="12"/><rect x="384" y="84" width="12" height="12"/><rect x="396" y="84" width="12" height="12"/><rect x="408" y="84" width="12" height="12"/><rect x="432" y="84" width="12" height="12"/><rect x="456" y="84" width="12" height="12"/><rect x="480" y="84" width="12" height="12"/><rect x="552" y="84" width="12" height="12"/><rect x="72" y="96" width="12" height="12"/><rect x="96" y="96" width="12" height="12"/><rect x="108" y="96" width="12" height="12"/><rect x="120" y="96" width="12" height="12"/><rect x="144" y="96" width="12" height="12"/><rect x="168" y="96" width="12" height="12"/><rect x="192" y="96" width="12" height="12"/><rect x="216" y="96" width="12" height="12"/><rect x="228" y="96" width="12" height="12"/><rect x="252" y="96" width="12" height="12"/><rect x="264" y="96" width="12" height="12"/><rect x="288" y="96" width="12" height="12"/><rect x="360" y="96" width="12" height="12"/><rect x="372" y="96" width="12" height="12"/><rect x="396" y="96" width="12" height="12"/><rect x="408" y="96" width="12" height="12"/><rect x="456" y="96" width="12" height="12"/><rect x="480" y="96" width="12" height="12"/><rect x="504" y="96" width="12" height="12"/><rect x="516" y="96" width="12" height="12"/><rect x="528" y="96" width="12" height="12"/><rect x="552" y="96" width="12" height="12"/><rect x="72" y="108" width="12" height="12"/><rect x="96" y="108" width="12" height="12"/><rect x="108" y="108" width="12" height="12"/><rect x="120" y="108" width="12" height="12"/><rect x="144" y="108" width="12" height="12"/><rect x="240" y="108" width="12" height="12"/><rect x="276" y="108" width="12" height="12"/><rect x="288" y="108" width="12" height="12"/><rect x="300" y="108" width="12" height="12"/><rect x="348" y="108" width="12" height="12"/><rect x="360" y="108" width="12" height="12"/><rect x="384" y="108" width="12" height="12"/><rect x="396" y="108" width="12" height="12"/><rect x="432" y="108" width="12" height="12"/><rect x="456" y="108" width="12" height="12"/><rect x="480" y="108" width="12" height="12"/><rect x="504" y="108" width="12" height="12"/><rect x="516" y="108" width="12" height="12"/><rect x="528" y="108" width="12" height="12"/><rect x="552" y="108" width="12" height="12"/><rect x="72" y="120" width="12" height="12"/><rect x="96" y="120" width="12" height="12"/><rect x="108" y="120" width="12" height="12"/><rect x="120" y="120" width="12" height="12"/><rect x="144" y="120" width="12" height="12"/><rect x="216" y="120" width="12" height="12"/><rect x="240" y="120" width="12" height="12"/><rect x="288" y="120" width="12" height="12"/><rect x="324" y="120" width="12" height="12"/><rect x="336" y="120" width="12" height="12"/><rect x="372" y="120" width="12" height="12"/><rect x="408" y="120" width="12" height="12"/><rect x="420" y="120" width="12" height="12"/><rect x="444" y="120" width="12" height="12"/><rect x="456" y="120" width="12" height="12"/><rect x="480" y="120" width="12" height="12"/><rect x="504" y="120" width="12" height="12"/><rect x="516" y="120" width="12" height="12"/><rect x="528" y="120" width="12" height="12"/><rect x="552" y="120" width="12" height="12"/><rect x="72" y="132" width="12" height="12"/><rect x="144" y="132" width="12" height="12"/><rect x="168" y="132" width="12" height="12"/><rect x="192" y="132" width="12" height="12"/><rect x="228" y="132" width="12" height="12"/><rect x="240" y="132" width="12" height="12"/><rect x="264" y="132" width="12" height="12"/><rect x="300" y="132" width="12" height="12"/><rect x="312" y="132" width="12" height="12"/><rect x="336" y="132" width="12" height="12"/><rect x="348" y="132" width="12" height="12"/><rect x="360" y="132" width="12" height="12"/><rect x="384" y="132" width="12" height="12"/><rect x="396" y="132" width="12" height="12"/><rect x="456" y="132" width="12" height="12"/><rect x="480" y="132" width="12" height="12"/><rect x="552" y="132" width="12" height="12"/><rect x="72" y="144" width="12" height="12"/><rect x="84" y="144" width="12" height="12"/><rect x="96" y="144" width="12" height="12"/><rect x="108" y="144" width="12" height="12"/><rect x="120" y="144" width="12" height="12"/><rect x="132" y="144" width="12" height="12"/><rect x="144" y="144" width="12" height="12"/><rect x="168" y="144" width="12" height="12"/><rect x="192" y="144" width="12" height="12"/><rect x="216" y="144" width="12" height="12"/><rect x="240" y="144" width="12" height="12"/><rect x="264" y="144" width="12" height="12"/><rect x="288" y="144" width="12" height="12"/><rect x="312" y="144" width="12" height="12"/><rect x="336" y="144" width="12" height="12"/><rect x="360" y="144" width="12" height="12"/><rect x="384" y="144" width="12" height="12"/><rect x="408" y="144" width="12" height="12"/><rect x="432" y="144" width="12" height="12"/><rect x="456" y="144" width="12" height="12"/><rect x="480" y="144" width="12" height="12"/><rect x="492" y="144" width="12" height="12"/><rect x="504" y="144" width="12" height="12"/><rect x="516" y="144" width="12" height="12"/><rect x="528" y="144" width="12" height="12"/><rect x="540" y="144" width="12" height="12"/><rect x="552" y="144" width="12" height="12"/><rect x="168" y="156" width="12" height="12"/><rect x="180" y="156" width="12" height="12"/><rect x="204" y="156" width="12" height="12"/><rect x="252" y="156" width="12" height="12"/><rect x="264" y="156" width="12" height="12"/><rect x="276" y="156" width="12" height="12"/><rect x="288" y="156" width="12" height="12"/><rect x="312" y="156" width="12" height="12"/><rect x="324" y="156" width="12" height="12"/><rect x="348" y="156" width="12" height="12"/><rect x="360" y="156" width="12" height="12"/><rect x="408" y="156" width="12" height="12"/><rect x="96" y="168" width="12" height="12"/><rect x="108" y="168" width="12" height="12"/><rect x="120" y="168" width="12" height="12"/><rect x="144" y="168" width="12" height="12"/><rect x="168" y="168" width="12" height="12"/><rect x="180" y="168" width="12" height="12"/><rect x="216" y="168" width="12" height="12"/><rect x="228" y="168" width="12" height="12"/><rect x="240" y="168" width="12" height="12"/><rect x="252" y="168" width="12" height="12"/><rect x="264" y="168" width="12" height="12"/><rect x="276" y="168" width="12" height="12"/><rect x="300" y="168" width="12" height="12"/><rect x="312" y="168" width="12" height="12"/><rect x="336" y="168" width="12" height="12"/><rect x="348" y="168" width="12" height="12"/><rect x="360" y="168" width="12" height="12"/><rect x="408" y="168" width="12" height="12"/><rect x="420" y="168" width="12" height="12"/><rect x="444" y="168" width="12" height="12"/><rect x="468" y="168" width="12" height="12"/><rect x="480" y="168" width="12" height="12"/><rect x="492" y="168" width="12" height="12"/><rect x="528" y="168" width="12" height="12"/><rect x="540" y="168" width="12" height="12"/><rect x="552" y="168" width="12" height="12"/><rect x="96" y="180" width="12" height="12"/><rect x="108" y="180" width="12" height="12"/><rect x="132" y="180" width="12" height="12"/><rect x="168" y="180" width="12" height="12"/><rect x="180" y="180" width="12" height="12"/><rect x="192" y="180" width="12" height="12"/><rect x="204" y="180" width="12" height="12"/><rect x="216" y="180" width="12" height="12"/><rect x="228" y="180" width="12" height="12"/><rect x="240" y="180" width="12" height="12"/><rect x="252" y="180" width="12" height="12"/><rect x="276" y="180" width="12" height="12"/><rect x="300" y="180" width="12" height="12"/><rect x="336" y="180" width="12" height="12"/><rect x="348" y="180" width="12" height="12"/><rect x="384" y="180" width="12" height="12"/><rect x="408" y="180" width="12" height="12"/><rect x="432" y="180" width="12" height="12"/><rect x="444" y="180" width="12" height="12"/><rect x="456" y="180" width="12" height="12"/><rect x="468" y="180" width="12" height="12"/><rect x="480" y="180" width="12" height="12"/><rect x="492" y="180" width="12" height="12"/><rect x="504" y="180" width="12" height="12"/><rect x="528" y="180" width="12" height="12"/><rect x="540" y="180" width="12" height="12"/><rect x="552" y="180" width="12" height="12"/><rect x="72" y="192" width="12" height="12"/><rect x="84" y="192" width="12" height="12"/><rect x="96" y="192" width="12" height="12"/><rect x="108" y="192" width="12" height="12"/><rect x="120" y="192" width="12" height="12"/><rect x="144" y="192" width="12" height="12"/><rect x="156" y="192" width="12" height="12"/><rect x="180" y="192" width="12" height="12"/><rect x="192" y="192" width="12" height="12"/><rect x="216" y="192" width="12" height="12"/><rect x="228" y="192" width="12" height="12"/><rect x="300" y="192" width="12" height="12"/><rect x="324" y="192" width="12" height="12"/><rect x="360" y="192" width="12" height="12"/><rect x="396" y="192" width="12" height="12"/><rect x="456" y="192" width="12" height="12"/><rect x="480" y="192" width="12" height="12"/><rect x="504" y="192" width="12" height="12"/><rect x="72" y="204" width="12" height="12"/><rect x="132" y="204" width="12" height="12"/><rect x="180" y="204" width="12" height="12"/><rect x="192" y="204" width="12" height="12"/><rect x="216" y="204" width="12" height="12"/><rect x="264" y="204" width="12" height="12"/><rect x="288" y="204" width="12" height="12"/><rect x="300" y="204" width="12" height="12"/><rect x="312" y="204" width="12" height="12"/><rect x="324" y="204" width="12" height="12"/><rect x="348" y="204" width="12" height="12"/><rect x="384" y="204" width="12" height="12"/><rect x="408" y="204" width="12" height="12"/><rect x="432" y="204" width="12" height="12"/><rect x="444" y="204" width="12" height="12"/><rect x="456" y="204" width="12" height="12"/><rect x="480" y="204" width="12" height="12"/><rect x="492" y="204" width="12" height="12"/><rect x="516" y="204" width="12" height="12"/><rect x="552" y="204" width="12" height="12"/><rect x="72" y="216" width="12" height="12"/><rect x="96" y="216" width="12" height="12"/><rect x="120" y="216" width="12" height="12"/><rect x="132" y="216" width="12" height="12"/><rect x="144" y="216" width="12" height="12"/><rect x="156" y="216" width="12" height="12"/><rect x="168" y="216" width="12" height="12"/><rect x="180" y="216" width="12" height="12"/><rect x="192" y="216" width="12" height="12"/><rect x="216" y="216" width="12" height="12"/><rect x="228" y="216" width="12" height="12"/><rect x="252" y="216" width="12" height="12"/><rect x="264" y="216" width="12" height="12"/><rect x="300" y="216" width="12" height="12"/><rect x="312" y="216" width="12" height="12"/><rect x="360" y="216" width="12" height="12"/><rect x="372" y="216" width="12" height="12"/><rect x="384" y="216" width="12" height="12"/><rect x="408" y="216" width="12" height="12"/><rect x="420" y="216" width="12" height="12"/><rect x="444" y="216" width="12" height="12"/><rect x="468" y="216" width="12" height="12"/><rect x="492" y="216" width="12" height="12"/><rect x="516" y="216" width="12" height="12"/><rect x="528" y="216" width="12" height="12"/><rect x="84" y="228" width="12" height="12"/><rect x="132" y="228" width="12" height="12"/><rect x="252" y="228" width="12" height="12"/><rect x="276" y="228" width="12" height="12"/><rect x="288" y="228" width="12" height="12"/><rect x="300" y="228" width="12" height="12"/><rect x="336" y="228" width="12" height="12"/><rect x="348" y="228" width="12" height="12"/><rect x="360" y="228" width="12" height="12"/><rect x="396" y="228" width="12" height="12"/><rect x="420" y="228" width="12" height="12"/><rect x="432" y="228" width="12" height="12"/><rect x="456" y="228" width="12" height="12"/><rect x="468" y="228" width="12" height="12"/><rect x="504" y="228" width="12" height="12"/><rect x="516" y="228" width="12" height="12"/><rect x="540" y="228" width="12" height="12"/><rect x="552" y="228" width="12" height="12"/><rect x="72" y="240" width="12" height="12"/><rect x="84" y="240" width="12" height="12"/><rect x="120" y="240" width="12" height="12"/><rect x="132" y="240" width="12" height="12"/><rect x="144" y="240" width="12" height="12"/><rect x="168" y="240" width="12" height="12"/><rect x="180" y="240" width="12" height="12"/><rect x="216" y="240" width="12" height="12"/><rect x="240" y="240" width="12" height="12"/><rect x="252" y="240" width="12" height="12"/><rect x="264" y="240" width="12" height="12"/><rect x="276" y="240" width="12" height="12"/><rect x="288" y="240" width="12" height="12"/><rect x="300" y="240" width="12" height="12"/><rect x="336" y="240" width="12" height="12"/><rect x="360" y="240" width="12" height="12"/><rect x="372" y="240" width="12" height="12"/><rect x="384" y="240" width="12" height="12"/><rect x="396" y="240" width="12" height="12"/><rect x="408" y="240" width="12" height="12"/><rect x="420" y="240" width="12" height="12"/><rect x="444" y="240" width="12" height="12"/><rect x="468" y="240" width="12" height="12"/><rect x="492" y="240" width="12" height="12"/><rect x="504" y="240" width="12" height="12"/><rect x="540" y="240" width="12" height="12"/><rect x="72" y="252" width="12" height="12"/><rect x="84" y="252" width="12" height="12"/><rect x="96" y="252" width="12" height="12"/><rect x="108" y="252" width="12" height="12"/><rect x="120" y="252" width="12" height="12"/><rect x="192" y="252" width="12" height="12"/><rect x="204" y="252" width="12" height="12"/><rect x="216" y="252" width="12" height="12"/><rect x="252" y="252" width="12" height="12"/><rect x="264" y="252" width="12" height="12"/><rect x="276" y="252" width="12" height="12"/><rect x="300" y="252" width="12" height="12"/><rect x="312" y="252" width="12" height="12"/><rect x="348" y="252" width="12" height="12"/><rect x="360" y="252" width="12" height="12"/><rect x="372" y="252" width="12" height="12"/><rect x="396" y="252" width="12" height="12"/><rect x="432" y="252" width="12" height="12"/><rect x="444" y="252" width="12" height="12"/><rect x="456" y="252" width="12" height="12"/><rect x="480" y="252" width="12" height="12"/><rect x="516" y="252" width="12" height="12"/><rect x="552" y="252" width="12" height="12"/><rect x="84" y="264" width="12" height="12"/><rect x="108" y="264" width="12" height="12"/><rect x="144" y="264" width="12" height="12"/><rect x="156" y="264" width="12" height="12"/><rect x="168" y="264" width="12" height="12"/><rect x="180" y="264" width="12" height="12"/><rect x="216" y="264" width="12" height="12"/><rect x="228" y="264" width="12" height="12"/><rect x="252" y="264" width="12" height="12"/><rect x="300" y="264" width="12" height="12"/><rect x="324" y="264" width="12" height="12"/><rect x="348" y="264" width="12" height="12"/><rect x="360" y="264" width="12" height="12"/><rect x="372" y="264" width="12" height="12"/><rect x="384" y="264" width="12" height="12"/><rect x="396" y="264" width="12" height="12"/><rect x="420" y="264" width="12" height="12"/><rect x="444" y="264" width="12" height="12"/><rect x="468" y="264" width="12" height="12"/><rect x="492" y="264" width="12" height="12"/><rect x="528" y="264" width="12" height="12"/><rect x="552" y="264" width="12" height="12"/><rect x="108" y="276" width="12" height="12"/><rect x="120" y="276" width="12" height="12"/><rect x="180" y="276" width="12" height="12"/><rect x="192" y="276" width="12" height="12"/><rect x="204" y="276" width="12" height="12"/><rect x="216" y="276" width="12" height="12"/><rect x="228" y="276" width="12" height="12"/><rect x="276" y="276" width="12" height="12"/><rect x="324" y="276" width="12" height="12"/><rect x="336" y="276" width="12" height="12"/><rect x="384" y="276" width="12" height="12"/><rect x="408" y="276" width="12" height="12"/><rect x="420" y="276" width="12" height="12"/><rect x="432" y="276" width="12" height="12"/><rect x="444" y="276" width="12" height="12"/><rect x="456" y="276" width="12" height="12"/><rect x="480" y="276" width="12" height="12"/><rect x="492" y="276" width="12" height="12"/><rect x="504" y="276" width="12" height="12"/><rect x="516" y="276" width="12" height="12"/><rect x="528" y="276" width="12" height="12"/><rect x="552" y="276" width="12" height="12"/><rect x="72" y="288" width="12" height="12"/><rect x="84" y="288" width="12" height="12"/><rect x="96" y="288" width="12" height="12"/><rect x="108" y="288" width="12" height="12"/><rect x="144" y="288" width="12" height="12"/><rect x="156" y="288" width="12" height="12"/><rect x="168" y="288" width="12" height="12"/><rect x="300" y="288" width="12" height="12"/><rect x="324" y="288" width="12" height="12"/><rect x="336" y="288" width="12" height="12"/><rect x="396" y="288" width="12" height="12"/><rect x="420" y="288" width="12" height="12"/><rect x="468" y="288" width="12" height="12"/><rect x="480" y="288" width="12" height="12"/><rect x="504" y="288" width="12" height="12"/><rect x="516" y="288" width="12" height="12"/><rect x="528" y="288" width="12" height="12"/><rect x="120" y="300" width="12" height="12"/><rect x="156" y="300" width="12" height="12"/><rect x="180" y="300" width="12" height="12"/><rect x="192" y="300" width="12" height="12"/><rect x="216" y="300" width="12" height="12"/><rect x="264" y="300" width="12" height="12"/><rect x="276" y="300" width="12" height="12"/><rect x="288" y="300" width="12" height="12"/><rect x="300" y="300" width="12" height="12"/><rect x="336" y="300" width="12" height="12"/><rect x="408" y="300" width="12" height="12"/><rect x="420" y="300" width="12" height="12"/><rect x="432" y="300" width="12" height="12"/><rect x="444" y="300" width="12" height="12"/><rect x="468" y="300" width="12" height="12"/><rect x="504" y="300" width="12" height="12"/><rect x="516" y="300" width="12" height="12"/><rect x="72" y="312" width="12" height="12"/><rect x="84" y="312" width="12" height="12"/><rect x="132" y="312" width="12" height="12"/><rect x="144" y="312" width="12" height="12"/><rect x="192" y="312" width="12" height="12"/><rect x="216" y="312" width="12" height="12"/><rect x="228" y="312" width="12" height="12"/><rect x="252" y="312" width="12" height="12"/><rect x="264" y="312" width="12" height="12"/><rect x="276" y="312" width="12" height="12"/><rect x="288" y="312" width="12" height="12"/><rect x="360" y="312" width="12" height="12"/><rect x="372" y="312" width="12" height="12"/><rect x="384" y="312" width="12" height="12"/><rect x="396" y="312" width="12" height="12"/><rect x="444" y="312" width="12" height="12"/><rect x="468" y="312" width="12" height="12"/><rect x="528" y="312" width="12" height="12"/><rect x="540" y="312" width="12" height="12"/><rect x="72" y="324" width="12" height="12"/><rect x="84" y="324" width="12" height="12"/><rect x="96" y="324" width="12" height="12"/><rect x="108" y="324" width="12" height="12"/><rect x="120" y="324" width="12" height="12"/><rect x="168" y="324" width="12" height="12"/><rect x="180" y="324" width="12" height="12"/><rect x="204" y="324" width="12" height="12"/><rect x="228" y="324" width="12" height="12"/><rect x="240" y="324" width="12" height="12"/><rect x="252" y="324" width="12" height="12"/><rect x="276" y="324" width="12" height="12"/><rect x="288" y="324" width="12" height="12"/><rect x="348" y="324" width="12" height="12"/><rect x="360" y="324" width="12" height="12"/><rect x="372" y="324" width="12" height="12"/><rect x="384" y="324" width="12" height="12"/><rect x="420" y="324" width="12" height="12"/><rect x="432" y="324" width="12" height="12"/><rect x="444" y="324" width="12" height="12"/><rect x="456" y="324" width="12" height="12"/><rect x="468" y="324" width="12" height="12"/><rect x="480" y="324" width="12" height="12"/><rect x="504" y="324" width="12" height="12"/><rect x="516" y="324" width="12" height="12"/><rect x="540" y="324" width="12" height="12"/><rect x="552" y="324" width="12" height="12"/><rect x="84" y="336" width="12" height="12"/><rect x="132" y="336" width="12" height="12"/><rect x="144" y="336" width="12" height="12"/><rect x="204" y="336" width="12" height="12"/><rect x="216" y="336" width="12" height="12"/><rect x="252" y="336" width="12" height="12"/><rect x="288" y="336" width="12" height="12"/><rect x="300" y="336" width="12" height="12"/><rect x="324" y="336" width="12" height="12"/><rect x="348" y="336" width="12" height="12"/><rect x="372" y="336" width="12" height="12"/><rect x="384" y="336" width="12" height="12"/><rect x="396" y="336" width="12" height="12"/><rect x="432" y="336" width="12" height="12"/><rect x="456" y="336" width="12" height="12"/><rect x="468" y="336" width="12" height="12"/><rect x="492" y="336" width="12" height="12"/><rect x="516" y="336" width="12" height="12"/><rect x="84" y="348" width="12" height="12"/><rect x="96" y="348" width="12" height="12"/><rect x="108" y="348" width="12" height="12"/><rect x="132" y="348" width="12" height="12"/><rect x="156" y="348" width="12" height="12"/><rect x="168" y="348" width="12" height="12"/><rect x="180" y="348" width="12" height="12"/><rect x="228" y="348" width="12" height="12"/><rect x="240" y="348" width="12" height="12"/><rect x="252" y="348" width="12" height="12"/><rect x="264" y="348" width="12" height="12"/><rect x="300" y="348" width="12" height="12"/><rect x="312" y="348" width="12" height="12"/><rect x="336" y="348" width="12" height="12"/><rect x="348" y="348" width="12" height="12"/><rect x="372" y="348" width="12" height="12"/><rect x="384" y="348" width="12" height="12"/><rect x="444" y="348" width="12" height="12"/><rect x="456" y="348" width="12" height="12"/><rect x="504" y="348" width="12" height="12"/><rect x="516" y="348" width="12" height="12"/><rect x="72" y="360" width="12" height="12"/><rect x="96" y="360" width="12" height="12"/><rect x="108" y="360" width="12" height="12"/><rect x="120" y="360" width="12" height="12"/><rect x="144" y="360" width="12" height="12"/><rect x="168" y="360" width="12" height="12"/><rect x="180" y="360" width="12" height="12"/><rect x="192" y="360" width="12" height="12"/><rect x="204" y="360" width="12" height="12"/><rect x="240" y="360" width="12" height="12"/><rect x="252" y="360" width="12" height="12"/><rect x="276" y="360" width="12" height="12"/><rect x="300" y="360" width="12" height="12"/><rect x="348" y="360" width="12" height="12"/><rect x="396" y="360" width="12" height="12"/><rect x="420" y="360" width="12" height="12"/><rect x="528" y="360" width="12" height="12"/><rect x="540" y="360" width="12" height="12"/><rect x="84" y="372" width="12" height="12"/><rect x="108" y="372" width="12" height="12"/><rect x="132" y="372" width="12" height="12"/><rect x="168" y="372" width="12" height="12"/><rect x="204" y="372" width="12" height="12"/><rect x="216" y="372" width="12" height="12"/><rect x="228" y="372" width="12" height="12"/><rect x="240" y="372" width="12" height="12"/><rect x="288" y="372" width="12" height="12"/><rect x="300" y="372" width="12" height="12"/><rect x="324" y="372" width="12" height="12"/><rect x="336" y="372" width="12" height="12"/><rect x="348" y="372" width="12" height="12"/><rect x="360" y="372" width="12" height="12"/><rect x="372" y="372" width="12" height="12"/><rect x="384" y="372" width="12" height="12"/><rect x="408" y="372" width="12" height="12"/><rect x="420" y="372" width="12" height="12"/><rect x="432" y="372" width="12" height="12"/><rect x="444" y="372" width="12" height="12"/><rect x="468" y="372" width="12" height="12"/><rect x="480" y="372" width="12" height="12"/><rect x="492" y="372" width="12" height="12"/><rect x="504" y="372" width="12" height="12"/><rect x="516" y="372" width="12" height="12"/><rect x="552" y="372" width="12" height="12"/><rect x="84" y="384" width="12" height="12"/><rect x="96" y="384" width="12" height="12"/><rect x="144" y="384" width="12" height="12"/><rect x="168" y="384" width="12" height="12"/><rect x="192" y="384" width="12" height="12"/><rect x="204" y="384" width="12" height="12"/><rect x="228" y="384" width="12" height="12"/><rect x="240" y="384" width="12" height="12"/><rect x="264" y="384" width="12" height="12"/><rect x="288" y="384" width="12" height="12"/><rect x="300" y="384" width="12" height="12"/><rect x="324" y="384" width="12" height="12"/><rect x="360" y="384" width="12" height="12"/><rect x="372" y="384" width="12" height="12"/><rect x="396" y="384" width="12" height="12"/><rect x="408" y="384" width="12" height="12"/><rect x="432" y="384" width="12" height="12"/><rect x="456" y="384" width="12" height="12"/><rect x="480" y="384" width="12" height="12"/><rect x="492" y="384" width="12" height="12"/><rect x="504" y="384" width="12" height="12"/><rect x="84" y="396" width="12" height="12"/><rect x="96" y="396" width="12" height="12"/><rect x="120" y="396" width="12" height="12"/><rect x="180" y="396" width="12" height="12"/><rect x="204" y="396" width="12" height="12"/><rect x="228" y="396" width="12" height="12"/><rect x="264" y="396" width="12" height="12"/><rect x="276" y="396" width="12" height="12"/><rect x="288" y="396" width="12" height="12"/><rect x="300" y="396" width="12" height="12"/><rect x="348" y="396" width="12" height="12"/><rect x="372" y="396" width="12" height="12"/><rect x="396" y="396" width="12" height="12"/><rect x="432" y="396" width="12" height="12"/><rect x="444" y="396" width="12" height="12"/><rect x="456" y="396" width="12" height="12"/><rect x="468" y="396" width="12" height="12"/><rect x="480" y="396" width="12" height="12"/><rect x="516" y="396" width="12" height="12"/><rect x="540" y="396" width="12" height="12"/><rect x="552" y="396" width="12" height="12"/><rect x="72" y="408" width="12" height="12"/><rect x="84" y="408" width="12" height="12"/><rect x="120" y="408" width="12" height="12"/><rect x="132" y="408" width="12" height="12"/><rect x="144" y="408" width="12" height="12"/><rect x="192" y="408" width="12" height="12"/><rect x="216" y="408" width="12" height="12"/><rect x="228" y="408" width="12" height="12"/><rect x="240" y="408" width="12" height="12"/><rect x="264" y="408" width="12" height="12"/><rect x="276" y="408" width="12" height="12"/><rect x="300" y="408" width="12" height="12"/><rect x="324" y="408" width="12" height="12"/><rect x="372" y="408" width="12" height="12"/><rect x="396" y="408" width="12" height="12"/><rect x="420" y="408" width="12" height="12"/><rect x="444" y="408" width="12" height="12"/><rect x="456" y="408" width="12" height="12"/><rect x="480" y="408" width="12" height="12"/><rect x="492" y="408" width="12" height="12"/><rect x="516" y="408" width="12" height="12"/><rect x="528" y="408" width="12" height="12"/><rect x="540" y="408" width="12" height="12"/><rect x="72" y="420" width="12" height="12"/><rect x="84" y="420" width="12" height="12"/><rect x="96" y="420" width="12" height="12"/><rect x="132" y="420" width="12" height="12"/><rect x="180" y="420" width="12" height="12"/><rect x="252" y="420" width="12" height="12"/><rect x="276" y="420" width="12" height="12"/><rect x="300" y="420" width="12" height="12"/><rect x="312" y="420" width="12" height="12"/><rect x="324" y="420" width="12" height="12"/><rect x="348" y="420" width="12" height="12"/><rect x="360" y="420" width="12" height="12"/><rect x="372" y="420" width="12" height="12"/><rect x="396" y="420" width="12" height="12"/><rect x="408" y="420" width="12" height="12"/><rect x="420" y="420" width="12" height="12"/><rect x="468" y="420" width="12" height="12"/><rect x="504" y="420" width="12" height="12"/><rect x="516" y="420" width="12" height="12"/><rect x="540" y="420" width="12" height="12"/><rect x="552" y="420" width="12" height="12"/><rect x="72" y="432" width="12" height="12"/><rect x="96" y="432" width="12" height="12"/><rect x="120" y="432" width="12" height="12"/><rect x="144" y="432" width="12" height="12"/><rect x="156" y="432" width="12" height="12"/><rect x="216" y="432" width="12" height="12"/><rect x="228" y="432" width="12" height="12"/><rect x="240" y="432" width="12" height="12"/><rect x="252" y="432" width="12" height="12"/><rect x="276" y="432" width="12" height="12"/><rect x="312" y="432" width="12" height="12"/><rect x="324" y="432" width="12" height="12"/><rect x="336" y="432" width="12" height="12"/><rect x="372" y="432" width="12" height="12"/><rect x="420" y="432" width="12" height="12"/><rect x="456" y="432" width="12" height="12"/><rect x="468" y="432" width="12" height="12"/><rect x="480" y="432" width="12" height="12"/><rect x="504" y="432" width="12" height="12"/><rect x="516" y="432" width="12" height="12"/><rect x="72" y="444" width="12" height="12"/><rect x="96" y="444" width="12" height="12"/><rect x="108" y="444" width="12" height="12"/><rect x="120" y="444" width="12" height="12"/><rect x="132" y="444" width="12" height="12"/><rect x="156" y="444" width="12" height="12"/><rect x="180" y="444" width="12" height="12"/><rect x="192" y="444" width="12" height="12"/><rect x="204" y="444" width="12" height="12"/><rect x="228" y="444" width="12" height="12"/><rect x="240" y="444" width="12" height="12"/><rect x="264" y="444" width="12" height="12"/><rect x="276" y="444" width="12" height="12"/><rect x="300" y="444" width="12" height="12"/><rect x="312" y="444" width="12" height="12"/><rect x="324" y="444" width="12" height="12"/><rect x="360" y="444" width="12" height="12"/><rect x="372" y="444" width="12" height="12"/><rect x="408" y="444" width="12" height="12"/><rect x="432" y="444" width="12" height="12"/><rect x="468" y="444" width="12" height="12"/><rect x="480" y="444" width="12" height="12"/><rect x="492" y="444" width="12" height="12"/><rect x="516" y="444" width="12" height="12"/><rect x="72" y="456" width="12" height="12"/><rect x="84" y="456" width="12" height="12"/><rect x="96" y="456" width="12" height="12"/><rect x="120" y="456" width="12" height="12"/><rect x="132" y="456" width="12" height="12"/><rect x="144" y="456" width="12" height="12"/><rect x="156" y="456" width="12" height="12"/><rect x="168" y="456" width="12" height="12"/><rect x="192" y="456" width="12" height="12"/><rect x="204" y="456" width="12" height="12"/><rect x="240" y="456" width="12" height="12"/><rect x="252" y="456" width="12" height="12"/><rect x="264" y="456" width="12" height="12"/><rect x="312" y="456" width="12" height="12"/><rect x="324" y="456" width="12" height="12"/><rect x="336" y="456" width="12" height="12"/><rect x="372" y="456" width="12" height="12"/><rect x="420" y="456" width="12" height="12"/><rect x="456" y="456" width="12" height="12"/><rect x="468" y="456" width="12" height="12"/><rect x="480" y="456" width="12" height="12"/><rect x="492" y="456" width="12" height="12"/><rect x="504" y="456" width="12" height="12"/><rect x="528" y="456" width="12" height="12"/><rect x="540" y="456" width="12" height="12"/><rect x="552" y="456" width="12" height="12"/><rect x="168" y="468" width="12" height="12"/><rect x="216" y="468" width="12" height="12"/><rect x="228" y="468" width="12" height="12"/><rect x="240" y="468" width="12" height="12"/><rect x="252" y="468" width="12" height="12"/><rect x="312" y="468" width="12" height="12"/><rect x="336" y="468" width="12" height="12"/><rect x="348" y="468" width="12" height="12"/><rect x="372" y="468" width="12" height="12"/><rect x="384" y="468" width="12" height="12"/><rect x="408" y="468" width="12" height="12"/><rect x="432" y="468" width="12" height="12"/><rect x="456" y="468" width="12" height="12"/><rect x="504" y="468" width="12" height="12"/><rect x="516" y="468" width="12" height="12"/><rect x="528" y="468" width="12" height="12"/><rect x="540" y="468" width="12" height="12"/><rect x="552" y="468" width="12" height="12"/><rect x="72" y="480" width="12" height="12"/><rect x="84" y="480" width="12" height="12"/><rect x="96" y="480" width="12" height="12"/><rect x="108" y="480" width="12" height="12"/><rect x="120" y="480" width="12" height="12"/><rect x="132" y="480" width="12" height="12"/><rect x="144" y="480" width="12" height="12"/><rect x="180" y="480" width="12" height="12"/><rect x="204" y="480" width="12" height="12"/><rect x="228" y="480" width="12" height="12"/><rect x="252" y="480" width="12" height="12"/><rect x="264" y="480" width="12" height="12"/><rect x="276" y="480" width="12" height="12"/><rect x="300" y="480" width="12" height="12"/><rect x="336" y="480" width="12" height="12"/><rect x="348" y="480" width="12" height="12"/><rect x="384" y="480" width="12" height="12"/><rect x="396" y="480" width="12" height="12"/><rect x="408" y="480" width="12" height="12"/><rect x="432" y="480" width="12" height="12"/><rect x="444" y="480" width="12" height="12"/><rect x="456" y="480" width="12" height="12"/><rect x="480" y="480" width="12" height="12"/><rect x="504" y="480" width="12" height="12"/><rect x="516" y="480" width="12" height="12"/><rect x="72" y="492" width="12" height="12"/><rect x="144" y="492" width="12" height="12"/><rect x="192" y="492" width="12" height="12"/><rect x="216" y="492" width="12" height="12"/><rect x="228" y="492" width="12" height="12"/><rect x="264" y="492" width="12" height="12"/><rect x="276" y="492" width="12" height="12"/><rect x="288" y="492" width="12" height="12"/><rect x="300" y="492" width="12" height="12"/><rect x="312" y="492" width="12" height="12"/><rect x="324" y="492" width="12" height="12"/><rect x="396" y="492" width="12" height="12"/><rect x="444" y="492" width="12" height="12"/><rect x="456" y="492" width="12" height="12"/><rect x="504" y="492" width="12" height="12"/><rect x="516" y="492" width="12" height="12"/><rect x="540" y="492" width="12" height="12"/><rect x="72" y="504" width="12" height="12"/><rect x="96" y="504" width="12" height="12"/><rect x="108" y="504" width="12" height="12"/><rect x="120" y="504" width="12" height="12"/><rect x="144" y="504" width="12" height="12"/><rect x="168" y="504" width="12" height="12"/><rect x="192" y="504" width="12" height="12"/><rect x="216" y="504" width="12" height="12"/><rect x="228" y="504" width="12" height="12"/><rect x="240" y="504" width="12" height="12"/><rect x="252" y="504" width="12" height="12"/><rect x="264" y="504" width="12" height="12"/><rect x="300" y="504" width="12" height="12"/><rect x="324" y="504" width="12" height="12"/><rect x="348" y="504" width="12" height="12"/><rect x="360" y="504" width="12" height="12"/><rect x="432" y="504" width="12" height="12"/><rect x="456" y="504" width="12" height="12"/><rect x="468" y="504" width="12" height="12"/><rect x="480" y="504" width="12" height="12"/><rect x="492" y="504" width="12" height="12"/><rect x="504" y="504" width="12" height="12"/><rect x="528" y="504" width="12" height="12"/><rect x="540" y="504" width="12" height="12"/><rect x="72" y="516" width="12" height="12"/><rect x="96" y="516" width="12" height="12"/><rect x="108" y="516" width="12" height="12"/><rect x="120" y="516" width="12" height="12"/><rect x="144" y="516" width="12" height="12"/><rect x="168" y="516" width="12" height="12"/><rect x="180" y="516" width="12" height="12"/><rect x="216" y="516" width="12" height="12"/><rect x="240" y="516" width="12" height="12"/><rect x="276" y="516" width="12" height="12"/><rect x="324" y="516" width="12" height="12"/><rect x="336" y="516" width="12" height="12"/><rect x="348" y="516" width="12" height="12"/><rect x="372" y="516" width="12" height="12"/><rect x="408" y="516" width="12" height="12"/><rect x="420" y="516" width="12" height="12"/><rect x="456" y="516" width="12" height="12"/><rect x="468" y="516" width="12" height="12"/><rect x="492" y="516" width="12" height="12"/><rect x="516" y="516" width="12" height="12"/><rect x="552" y="516" width="12" height="12"/><rect x="72" y="528" width="12" height="12"/><rect x="96" y="528" width="12" height="12"/><rect x="108" y="528" width="12" height="12"/><rect x="120" y="528" width="12" height="12"/><rect x="144" y="528" width="12" height="12"/><rect x="168" y="528" width="12" height="12"/><rect x="192" y="528" width="12" height="12"/><rect x="216" y="528" width="12" height="12"/><rect x="228" y="528" width="12" height="12"/><rect x="240" y="528" width="12" height="12"/><rect x="264" y="528" width="12" height="12"/><rect x="276" y="528" width="12" height="12"/><rect x="288" y="528" width="12" height="12"/><rect x="348" y="528" width="12" height="12"/><rect x="360" y="528" width="12" height="12"/><rect x="384" y="528" width="12" height="12"/><rect x="396" y="528" width="12" height="12"/><rect x="408" y="528" width="12" height="12"/><rect x="444" y="528" width="12" height="12"/><rect x="456" y="528" width="12" height="12"/><rect x="468" y="528" width="12" height="12"/><rect x="480" y="528" width="12" height="12"/><rect x="492" y="528" width="12" height="12"/><rect x="504" y="528" width="12" height="12"/><rect x="540" y="528" width="12" height="12"/><rect x="72" y="540" width="12" height="12"/><rect x="144" y="540" width="12" height="12"/><rect x="180" y="540" width="12" height="12"/><rect x="204" y="540" width="12" height="12"/><rect x="216" y="540" width="12" height="12"/><rect x="228" y="540" width="12" height="12"/><rect x="288" y="540" width="12" height="12"/><rect x="300" y="540" width="12" height="12"/><rect x="324" y="540" width="12" height="12"/><rect x="336" y="540" width="12" height="12"/><rect x="360" y="540" width="12" height="12"/><rect x="384" y="540" width="12" height="12"/><rect x="396" y="540" width="12" height="12"/><rect x="408" y="540" width="12" height="12"/><rect x="432" y="540" width="12" height="12"/><rect x="456" y="540" width="12" height="12"/><rect x="480" y="540" width="12" height="12"/><rect x="504" y="540" width="12" height="12"/><rect x="516" y="540" width="12" height="12"/><rect x="540" y="540" width="12" height="12"/><rect x="72" y="552" width="12" height="12"/><rect x="84" y="552" width="12" height="12"/><rect x="96" y="552" width="12" height="12"/><rect x="108" y="552" width="12" height="12"/><rect x="120" y="552" width="12" height="12"/><rect x="132" y="552" width="12" height="12"/><rect x="144" y="552" width="12" height="12"/><rect x="264" y="552" width="12" height="12"/><rect x="288" y="552" width="12" height="12"/><rect x="300" y="552" width="12" height="12"/><rect x="312" y="552" width="12" height="12"/><rect x="324" y="552" width="12" height="12"/><rect x="336" y="552" width="12" height="12"/><rect x="348" y="552" width="12" height="12"/><rect x="384" y="552" width="12" height="12"/><rect x="396" y="552" width="12" height="12"/><rect x="420" y="552" width="12" height="12"/><rect x="444" y="552" width="12" height="12"/><rect x="468" y="552" width="12" height="12"/><rect x="480" y="552" width="12" height="12"/><rect x="492" y="552" width="12" height="12"/><rect x="504" y="552" width="12" height="12"/><rect x="516" y="552" width="12" height="12"/><rect x="528" y="552" width="12" height="12"/>
  </g>
</svg>